<svg height="880" version="1.1" width="880" xmlns="http://www.w3.org/2000/svg" viewBox="0 0 880 880">
    <defs></defs>
    <path d="M204.376522705, 585.754986816L200.082765625, 585.67803125L196.016451904, 585.157181152L194.088112213, 584.712006165L192.240064453, 584.133910156L190.480118988, 583.415577332L188.816086182, 582.549691895L187.255776398, 581.528938049L185.807, 580.346L191.465794922, 579.651380859L195.104977783, 579.001152588L199.192796875, 578.120546875L203.66083667, 576.98823999L208.440681641, 575.582908203L213.46391626, 573.883227783L218.662125, 571.867875L223.966892334, 569.515526123L229.309802734, 566.804857422L234.622440674, 563.714545166L239.836390625, 560.223265625L244.883237061, 556.309695068L249.694564453, 551.952509766L254.201957275, 547.130385986L256.32029837, 544.538308502L258.337, 541.822L260.135186859, 538.9624021L261.611772217, 535.945923828L262.778605743, 532.77838208L263.647537109, 529.46559375L264.230415985, 526.013375732L264.539092041, 522.427544922L264.585414948, 518.713918213L264.381234375, 514.8783125L263.938399994, 510.926544678L263.268761475, 506.864431641L262.384168488, 502.697790283L261.296470703, 498.4324375L258.559159424, 489.628865234L255.151625, 480.50025L251.168664795, 471.093126953L246.705076172, 461.45403125L241.855656494, 451.629498047L236.715203125, 441.6660625L225.940384766, 421.508625L215.139, 401.354L209.194312256, 389.471510254L203.777107422, 377.371722656L198.924298096, 365.124847168L196.721076935, 358.968192078L194.672796875, 352.80109375L192.784071991, 346.63232843L191.059516357, 340.470672363L189.503744049, 334.324901794L188.121369141, 328.203792969L186.917005707, 322.116122131L185.895267822, 316.070665527L185.060769562, 310.076199402L184.418125, 304.1415L183.971948212, 298.275343567L183.726853271, 292.486506348L183.687454254, 286.783764587L183.858365234, 281.175894531L184.244200287, 275.671672424L184.849573486, 270.279874512L185.679098907, 265.009277039L186.737390625, 259.86865625L188.029062714, 254.866788391L189.558729248, 250.012449707L191.331004303, 245.314416443L193.350501953, 240.781464844L195.621836273, 236.422371155L198.149621338, 232.245911621L200.938471222, 228.260862488L203.993, 224.476L205.552715332, 222.794745117L206.919707031, 221.563507813L208.105556152, 220.752891602L209.12184375, 220.3335L209.980150879, 220.275936523L210.692058594, 220.550804688L211.269147949, 221.128708008L211.723, 221.98025L212.065195801, 223.07603418L212.307316406, 224.386664063L212.53765625, 227.534875L212.506667969, 231.189710938L212.307, 235.116L212.19894458, 239.548545654L212.380900391, 244.596974609L212.832988037, 250.121849854L213.535328125, 255.983734375L214.46804126, 262.043191162L215.611248047, 268.160783203L216.945069092, 274.197073486L218.449625, 280.012625L220.105036377, 285.468000732L221.891423828, 290.423763672L223.788907959, 294.740476807L225.777609375, 298.278703125L226.799954254, 299.712309662L227.837648682, 300.899005615L228.888207733, 301.821361359L229.949146484, 302.461947266L231.017980011, 302.80333371L232.092223389, 302.828091064L233.169391693, 302.518789703L234.247, 301.858L234.374952637, 294.258148193L234.690402344, 286.462966797L235.234736816, 278.500954346L236.04934375, 270.400609375L237.17561084, 262.19043042L238.654925781, 253.898916016L240.52867627, 245.554564697L242.83825, 237.185875L245.625034668, 228.821345459L248.930417969, 220.489474609L252.795787598, 212.218760986L254.95140094, 208.115243927L257.26253125, 204.037703125L259, 202L258.848167969, 204.022271484L260.696505554, 218.558597382L261.737175293, 227.534875L261.737175293, 228.696283447L259.356611389, 235.342240936L257.201238281, 242.274326172L255.264298279, 249.452410675L253.539033691, 256.836365967L252.018686829, 264.386063568L250.6965, 272.061375L249.565715515, 279.822171783L248.619575684, 287.628325439L247.851322815, 295.439707489L247.254199219, 303.216189453L246.821447205, 310.917642853L246.546309082, 318.503939209L246.44184375, 333.170546875L246.886741699, 346.894984619L247.826941406, 359.356224609L248.465885193, 365.012824249L249.208381348, 370.233239014L250.04767218, 374.977340424L250.977, 379.205L248.355823242, 374.497388916L245.145164063, 369.315392578L237.411375, 357.609765625L228.687585938, 344.251162109L224.239426758, 337.002945068L219.88575, 329.402625L215.740549805, 321.470582275L211.917820313, 313.227197266L208.531555664, 304.692850342L207.037720825, 300.322935028L205.69575, 295.887921875L204.519892456, 291.390358429L203.524397461, 286.832792236L202.723514282, 282.217770844L202.131492188, 277.547841797L201.762580444, 272.825552643L201.63102832, 268.053450928L201.751085083, 263.234084198L202.137, 258.37L200.613721966, 262.168904964L199.316796234, 266.040657684L198.239335361, 269.982268024L197.374451904, 273.99074585L196.715258419, 278.063101025L196.254867462, 282.196343414L195.98639159, 286.387482883L195.902943359, 290.633529297L195.997635326, 294.931492519L196.263580048, 299.278382416L196.693890079, 303.671208851L197.281677979, 308.106981689L198.902137604, 317.095406036L201.069859375, 326.219734375L203.729743744, 335.456045624L206.826691162, 344.780418701L210.305602081, 354.168932526L214.111376953, 363.597666016L218.188916229, 373.04269809L222.483120361, 382.480107666L231.501125, 401.236375L249.712732422, 437.604912109L258.024742432, 454.83444458L261.789450592, 463.126803009L265.219828125, 471.172328125L268.260775482, 478.947098846L270.857193115, 486.427194092L272.953981476, 493.58869278L274.496041016, 500.407673828L275.428272186, 506.860216156L275.648483524, 509.941597462L275.695575439, 512.922398682L275.562660488, 515.799629681L275.242851227, 518.570300323L274.729260212, 521.231420475L274.015, 523.78L277.244092133, 521.485538269L281.030881592, 518.571770996L290.082630859, 510.982277344L300.780404541, 501.203434082L306.624724518, 495.552979797L312.734359375, 489.42715625L319.060578705, 482.84995282L325.5546521, 475.845358887L332.167849152, 468.437363831L338.851439453, 460.649957031L345.556692596, 452.507127869L352.234878174, 444.032865723L358.837265778, 435.251159973L365.315125, 426.186L371.619725433, 416.861375183L377.70233667, 407.301274902L378, 406L382.341408897, 407.484311794L387.115443665, 408.942522736L391.981565559, 410.261758869L392.734623291, 410.626607422L388.734623291, 418.030643524L383.011, 426.945L375.655292969, 438.618655273L369.212546875, 449.834101562L363.586574219, 460.58999707L358.6811875, 470.885L354.400199219, 480.717768555L350.647421875, 490.086960937L347.326667969, 498.991235352L344.34175, 507.42925L338.994671875, 522.901132813L336.440136719, 529.932317383L333.8366875, 536.491875L331.088136719, 542.578463867L328.098296875, 548.190742188L324.770980469, 553.327368164L322.950709961, 555.716892212L321.01, 557.987L318.16540564, 560.968354553L315.331905273, 563.640375488L312.512172974, 566.017998718L309.708882813, 568.116160156L306.924708862, 569.949795715L304.162325195, 571.533841309L301.424405884, 572.883232849L298.713625, 574.01290625L296.032656616, 574.937797424L293.384174805, 575.672842285L290.770853638, 576.232976746L288.195367188, 576.633136719L283.168594727, 577.013276855L278.32525, 576.93275L273.686725586, 576.511043457L269.274414063, 575.867644531L261.214, 574.39371875L257.608682617, 573.802166504L254.315148438, 573.466871094L251.354790039, 573.507319824L250.006236938, 573.705788025L248.749, 574.043L235.552671875, 578.78084375L227.070056641, 581.529769531L222.576326416, 582.794391113L217.997625, 583.90775L213.396435303, 584.811319824L208.835240234, 585.446574219ZM200.092, 581.348L203.395, 581.212L207.184625, 580.804L212.061, 579.997L217.75825, 578.64725L220.832625, 577.75403125L224.003, 576.684L227.251375, 575.48L230.532, 574.117L233.792, 572.558L237.025, 570.876L240.173, 569.029L243.204, 567.038L246.10175, 564.9575L248.812, 562.763L251.307875, 560.498125L253.605, 558.231L257.409, 553.717L260.15, 549.562L261.181875, 547.774625L261.958, 546.201L263.368, 543.209L261.382, 545.848L260.381125, 547.24925L259.096, 548.814L255.889, 552.428L251.792, 556.378L246.89, 560.382L244.186125, 562.346L241.342, 564.25L238.400875, 566.111L235.345, 567.84L232.253625, 569.5145L229.13, 571.075L225.99775, 572.50475L222.909, 573.837L216.971125, 576.177625L211.556, 578.075L206.91425, 579.539L203.294, 580.547ZM287.856, 563.489L289.078009766, 563.333101563L290.209703125, 562.948875L291.227326172, 562.361398437L292.107125, 561.59575L292.825345703, 560.677007813L293.358234375, 559.63025L293.682037109, 558.480554688L293.773, 557.253L293.618337891, 556.031892578L293.234890625, 554.900703125L292.647841797, 553.883255859L291.882375, 553.003375L290.963673828, 552.284884766L289.916921875, 551.751609375L288.767302734, 551.427373047L287.54, 551.336L286.318853516, 551.491570312L285.187578125, 551.8755625L284.170044922, 552.462898438L283.290125, 553.2285L282.571689453, 554.147289063L282.038609375, 555.1941875L281.714755859, 556.344117187L281.624, 557.572L281.779521484, 558.793025391L282.163359375, 559.924015625L282.750423828, 560.941216797L283.515625, 561.820875L284.433873047, 562.539236328L285.480078125, 563.072546875L286.629150391, 563.397052734ZM287.741, 559.075L287.09153125, 558.96165625L286.554, 558.619L286.18371875, 558.09934375L286.036, 557.455L286.150171875, 556.80453125L286.492625, 556.26675L287.011515625, 555.89659375L287.655, 555.749L288.306328125, 555.862609375L288.844125, 556.204875L289.214109375, 556.723953125L289.362, 557.368L289.247796875, 558.01946875L288.905125, 558.5575L288.385640625, 558.92753125ZM402.257796875, 221.190953125L399.265592041, 220.513937012L399.725625, 219.5775L400.260247803, 218.879422363L400.867958984, 218.452097656L401.54725708, 218.327919434L402.296640625, 218.53928125L403.114608154, 219.11857666L403.999658203, 220.098199219L404, 221ZM368.098632812, 219.5775L364.98144101, 218.959782379L358.998, 217.716L367.006119049, 218.207774353Z"></path>
</svg>