<svg height="880" version="1.1" width="880" xmlns="http://www.w3.org/2000/svg" viewBox="0 0 800 800">
    <defs></defs>
    <g transform="matrix(1,0,0,-1,0,800)">
        <path d="M31.141, -25.146ZM28.858999999999998, -27.177ZM47.546, -19.739ZM54.492, -23.146000000000004L56.678999999999995, -23.427000000000003ZM58.489, -23.442L60.583, -23.114L66.333, -18.192ZM71.378, -14.692ZM71.378, -9.942ZM78.078, -20.712ZM76.328, -28.208L78.39, -28.520999999999997ZM90.104, -27.177ZM105.062, -19.739ZM112.00699999999998, -23.146000000000004L114.19499999999998, -23.427000000000003ZM118.255, -20.948ZM124.94300000000001, -27.177ZM144.882, -20.911ZM145.054, -25.630000000000003L136.56999999999996, -18.255ZM150.31, -27.177ZM165.081, -20.948ZM171.768, -27.177ZM183.724, -27.177L189.76499999999996, -17.05ZM193.345, -19.739ZM200.28999999999996, -23.146000000000004L202.47699999999998, -23.427000000000003ZM205.1, -9.942ZM212.07, -19.739ZM219.016, -23.146000000000004L221.203, -23.427000000000003ZM231.826, -20.911ZM231.998, -25.630000000000003L223.51299999999998, -18.255ZM236.394, -23.442L238.487, -23.114L244.23699999999997, -18.192ZM250.861, -19.739ZM257.806, -23.146000000000004L259.99399999999997, -23.427000000000003ZM264.053, -20.948ZM270.74099999999993, -27.177ZM282.728, -14.692ZM282.728, -9.942ZM288.073, -27.177ZM310.043, -21.007ZM308.137, -31.958000000000006ZM329.674, -27.177ZM336.804, -20.841ZM336.83500000000004, -27.177ZM348.231, -9.942ZM353.623, -14.692ZM353.623, -9.942ZM367.109, -22.599L369.188, -22.88L366.92199999999997, -18.676999999999996ZM379.073, -20.948ZM385.7609999999999, -27.177ZM392.438, -20.937ZM390.26599999999996, -20.935ZM404.436, -27.177ZM432.438, -20.911ZM432.609, -25.630000000000003L424.12499999999994, -18.255ZM437.865, -14.692ZM437.865, -9.942ZM443.21, -27.177ZM465.181, -20.841ZM465.21200000000005, -27.177ZM476.562, -31.979L476.327, -29.989L475.43699999999995, -14.691999999999997L480.3189999999999, -21.889999999999997L484.76499999999993, -14.691999999999997L482.1459999999999, -27.395999999999997ZM495.744, -27.177ZM510.034, -27.177L516.0749999999999, -17.05ZM519.655, -19.739ZM526.601, -23.146000000000004L528.788, -23.427000000000003ZM533.035, -19.739ZM539.98, -23.146000000000004L542.168, -23.427000000000003ZM544.338, -21.646L546.4939999999999, -21.458000000000002L555.3379999999999, -14.958000000000006ZM566.063, -27.177L559.3969999999999, -9.942L566.3469999999999, -22.458L572.8379999999999, -9.941999999999998L568.4209999999998, -27.177ZM585.26, -20.427L590.2399999999999, -15.330999999999996ZM596.239, -24.771ZM603.705, -20.937ZM601.533, -20.935ZM615.679, -27.177L621.7199999999999, -17.05ZM625.077, -20.712ZM623.3270000000001, -28.208L625.3900000000001, -28.520999999999997ZM563.195, 412.629L563.455785156, 410.873151367L563.864953125, 409.180742188L565.0853125, 406.0215625L566.769828125, 403.222101562L568.83225, 400.853L571.186328125, 398.984898438L572.445785156, 398.260797852L573.7458125, 397.6884375L575.075628906, 397.276647461L576.424453125, 397.034257813L577.781503906, 396.970098633L579.136, 397.093L580.443354004, 397.419359375L581.664847656, 397.94821875L582.797378418, 398.6618125L583.83784375, 399.542375L584.783141113, 400.572140625L585.630167969, 401.73334375L587.017, 404.379L587.973519531, 407.33721875L588.47490625, 410.465875L588.496339844, 413.62284375L588.013, 416.666L577.46, 414.82L577.467, 414.745L577.941169922, 409.526533203L577.928859375, 406.204078125L577.775045654, 405.187735596L577.541337891, 404.566052734L577.241644775, 404.312581787L576.889875, 404.400875L576.499937256, 404.804484619L576.085740234, 405.496962891L575.240203125, 407.642734375L574.464533203, 410.626607422L573.87, 414.237L563.195, 412.629ZM560.274, 431.702L562.117609375, 433.299234375L563.104306641, 433.870947266L564.132875, 434.296375L566.311453125, 434.723328125L568.645, 434.61L570.60478125, 434.41546875L572.49875, 434.4585L574.37209375, 434.74303125L576.27, 435.273L578.67759375, 435.803765625L579.908988281, 435.840966797L581.16075, 435.708375L582.434355469, 435.392736328L583.73128125, 434.880796875L585.053003906, 434.159302734L586.401, 433.215L584.409941162, 437.800609619L582.467513672, 441.749939453L580.573528564, 445.065615967L578.727796875, 447.750265625L576.930129639, 449.806514893L575.180337891, 451.236990234L573.478232666, 452.044318115L572.645003448, 452.215122528L571.823625, 452.231125L571.0140737, 452.092653839L570.216325928, 451.800037354L568.656146484, 450.753681641L567.142897705, 449.094684326L565.676390625, 446.825671875L564.256436279, 443.949270752L562.882845703, 440.468107422L561.555429932, 436.38480835L560.274, 431.702ZM622.812, 432.8L622.150241455, 430.120084961L621.229962891, 427.570289063L620.074784912, 425.138723633L618.708328125, 422.8135L617.154213135, 420.582729492L615.436060547, 418.434523438L611.602125, 414.33825L607.395486328, 410.429570313L603.005109375, 406.613375L598.619958984, 402.794554688L594.429, 398.878L592.29509375, 397.0290625L590.005, 395.569L587.51840625, 394.4764375L584.795, 393.73L578.786, 392.51L575.68353125, 392.117078125L572.67725, 392.226375L569.73284375, 392.841734375L566.816, 393.967L561.508214844, 396.321623047L556.11078125, 398.527546875L550.716582031, 400.738603516L545.4185, 403.108625L540.309417969, 405.791443359L537.854777832, 407.298223877L535.48221875, 408.940890625L533.203351074, 410.738672607L531.029785156, 412.710798828L528.973131348, 414.876498291L527.045, 417.255L528.346659668, 414.692589111L529.929871094, 412.321072266L531.76910791, 410.123148193L533.83884375, 408.081515625L536.113552246, 406.178873291L538.567707031, 404.397919922L541.175781738, 402.721354248L543.91225, 401.131875L549.668261719, 398.144970703L555.63153125, 395.298796875L561.597847656, 392.454943359L567.363, 389.475L570.369234375, 388.109859375L573.442875, 387.308625L576.610078125, 387.067078125L579.897, 387.381L586.137, 388.479L589.32290625, 389.30178125L592.20825, 390.60175L594.81721875, 392.39259375L597.174, 394.688L601.424033203, 399.218457031L605.949515625, 403.68753125L610.463396484, 408.159277344L614.678625, 412.69775L616.58454126, 415.012025879L618.308150391, 417.367003906L619.813571045, 419.770690918L621.064921875, 422.23109375L622.026321533, 424.756219238L622.661888672, 427.354074219L622.935741943, 430.032665527L622.812, 432.8ZM626.137, 478.146L619.921125, 479.967578125L614.23925, 481.122125L611.598445313, 481.449642578L609.091, 481.610859375L606.716867188, 481.605927734L604.476, 481.435L602.681, 481.377L600.81625, 481.03721875L599.0595, 480.4385L597.4385, 479.60878125L595.981, 478.576L594.183982422, 477.2435L592.579609375, 475.6708125L591.167775391, 473.85803125L589.948375, 471.80525L588.921302734, 469.5125625L588.086453125, 466.9800625L587.443720703, 464.20784375L586.993, 461.196L588.12546875, 463.883984375L589.36425, 466.351375L590.70690625, 468.602578125L592.151, 470.642L592.447806641, 468.900886719L593.113578125, 467.32578125L594.109466797, 465.946285156L595.396625, 464.792L596.936205078, 463.892527344L598.689359375, 463.27746875L600.617240234, 462.976425781L602.681, 463.019L604.805570313, 463.429615234L606.7845, 464.173359375L608.575367188, 465.208830078L610.13575, 466.494625L611.423226563, 467.989341797L612.395375, 469.651578125L613.009773438, 471.439931641L613.224, 473.313L612.940671875, 475.405296875L612.134125, 477.266125L610.869515625, 478.845890625L609.212, 480.095L613.12778125, 480.262828125L617.25975, 479.982625L621.59909375, 479.271359375L626.137, 478.146ZM602.046, 480.834L600.51365625, 479.52465625L599.33625, 477.884L598.58071875, 475.97934375L598.314, 473.878L598.58071875, 471.77621875L599.33625, 469.8715L600.51365625, 468.23078125L602.046, 466.921L603.5791875, 468.23078125L604.7565, 469.8715L605.5115625, 471.77621875L605.778, 473.878L605.5115625, 475.97934375L604.7565, 477.884L603.5791875, 479.52465625L602.046, 480.834ZM514.73, 473.474L519.269640625, 474.59890625L523.609875, 475.31L527.742171875, 475.58984375L531.658, 475.421L530.0000625, 474.172609375L528.7355, 472.593375L527.9291875, 470.732703125L527.646, 468.64L527.860099609, 466.76721875L528.474171875, 464.979L529.445876953, 463.31678125L530.732875, 461.822L532.292826172, 460.53609375L534.083390625, 459.5005L536.062228516, 458.75665625L538.187, 458.346L540.251908203, 458.303753906L542.180328125, 458.60503125L543.933552734, 459.220230469L545.472875, 460.11975L546.759587891, 461.273988281L547.754984375, 462.65334375L548.420357422, 464.228214844L548.717, 465.969L550.1615, 463.929609375L551.504, 461.678625L552.74225, 459.211828125L553.874, 456.525L553.423980469, 459.536511719L552.78184375, 462.30846875L551.947472656, 464.840753906L550.92075, 467.13325L549.701558594, 469.185839844L548.28978125, 470.99840625L546.685300781, 472.570832031L544.888, 473.903L543.430625, 474.936234375L541.809, 475.766125L540.051625, 476.365203125L538.187, 476.706L536.396, 476.763L534.154753906, 476.933845703L531.78021875, 476.938578125L529.272324219, 476.777115234L526.631, 476.449375L520.94778125, 475.294734375L514.73, 473.474ZM538.823, 476.162L537.290921875, 474.85265625L536.113125, 473.212L535.357015625, 471.30734375L535.09, 469.206L535.357015625, 467.103796875L536.113125, 465.199125L537.290921875, 463.558640625L538.823, 462.249L540.35534375, 463.558640625L541.53275, 465.199125L542.28828125, 467.103796875L542.555, 469.206L542.28828125, 471.30734375L541.53275, 473.212L540.35534375, 474.85265625L538.823, 476.162ZM358.998, 217.716L367.006119049, 218.207774353L374.376760986, 218.292069824L381.127134247, 217.980751282L387.274447266, 217.285683594L392.835908478, 216.218731628L397.828726318, 214.791760254L402.270109222, 213.016634338L406.177265625, 210.90521875L409.567403961, 208.469378357L412.457732666, 205.720978027L414.865460175, 202.671882629L416.807794922, 199.333957031L418.301945343, 195.719066101L419.365119873, 191.839074707L420.014526947, 187.705847717L420.267375, 183.33125L420.140872467, 178.727146423L419.652227783, 173.905401855L418.818649384, 168.877881165L417.657345703, 163.656449219L416.185525177, 158.252970886L414.42039624, 152.679311035L412.379167328, 146.947334534L410.079046875, 141.06890625L407.537243317, 135.055891052L404.770965088, 128.920153809L398.633818359, 116.327972656L391.80527417, 103.387281738L384.423, 90.193L394.032134766, 93.935359375L403.627078125, 97.3043125L413.204138672, 100.196921875L417.984809326, 101.432429688L422.759625, 102.51025L427.528124268, 103.417515625L432.289845703, 104.141359375L437.044327881, 104.668914063L441.791109375, 104.9873125L446.52972876, 105.0836875L451.259724609, 104.945171875L455.980635498, 104.558898438L460.692, 103.912L455.570013672, 106.966304688L450.797046875, 109.345L448.468317139, 110.275149414L446.139087891, 111.029382812L443.780107666, 111.605362305L441.362125, 112.00075L438.855888428, 112.213208008L436.232146484, 112.240398438L433.461647705, 112.079983398L430.515140625, 111.729625L423.977095703, 110.449726563L416.384, 108.382L420.830091217, 117.804064301L424.741428955, 126.751916748L428.131234344, 135.234234161L431.012728516, 143.259693359L433.399132599, 150.836971161L435.303667725, 157.974744385L436.739555023, 164.68168985L437.720015625, 170.966484375L438.25827066, 176.837804779L438.36754126, 182.304327881L438.061048553, 187.374730499L437.352013672, 192.057689453L436.253657745, 196.361881561L434.779201904, 200.295983643L432.941867279, 203.868672516L430.754875, 207.088625L428.231446198, 209.964517914L425.384802002, 212.505028076L422.228163544, 214.718832306L418.774751953, 216.614607422L415.037788361, 218.201030243L411.030493896, 219.486777588L406.766089691, 220.480526276L402.257796875, 221.190953125L397.518836578, 221.626734955L392.562429932, 221.796548584L387.401798065, 221.709070831L382.050162109, 221.372978516L376.520743195, 220.796948456L370.826762451, 219.989657471L364.98144101, 218.959782379L358.998, 217.716ZM254.668, 141.028L255.234983826, 157.497996185L256.119366699, 173.489012451L257.323108215, 188.998090363L258.848167969, 204.022271484L260.696505554, 218.558597382L262.870080566, 232.604109619L265.3708526, 246.155849762L268.20078125, 259.210859375L271.361826111, 271.766180023L274.855946777, 283.818853271L278.685102844, 295.365920685L282.851253906, 306.404423828L287.356359558, 316.931404266L292.202379395, 326.943903564L297.39127301, 336.438963287L302.925, 345.413625L308.805519958, 353.864930267L311.876439674, 357.893399723L315.03479248, 361.789920654L318.280823326, 365.554123257L321.614777161, 369.185637726L325.036898933, 372.684094257L328.547433594, 376.049123047L332.146626091, 379.28035429L335.834721375, 382.377418182L339.611964394, 385.33994492L343.478600098, 388.167564697L347.434873436, 390.859907711L351.481029358, 393.416604156L355.617312813, 395.837284229L359.84396875, 398.121578125L364.161242119, 400.269116039L368.569377869, 402.279528168L373.068620949, 404.152444706L377.659216309, 405.88749585L382.341408897, 407.484311794L387.115443665, 408.942522736L391.981565559, 410.261758869L396.940019531, 411.441650391L401.991050529, 412.481827496L407.134903503, 413.38192038L412.371823402, 414.141559238L417.702055176, 414.760374268L428.643434143, 415.574053619L439.961, 415.82L477.388, 452.209L478.987606689, 446.222845459L480.836572266, 440.554607422L482.93530249, 435.204811768L485.284203125, 430.173984375L487.883679932, 425.462651123L490.734138672, 421.071337891L493.835985107, 417.000570557L497.189625, 413.250875L500.795464111, 409.8227771L504.653908203, 406.716802734L508.765363037, 403.933477783L513.130234375, 401.473328125L517.748927979, 399.336879639L522.621849609, 397.524658203L527.749405029, 396.037189697L533.132, 394.875L527.4896521, 397.17097583L522.266107422, 399.746228516L517.447489502, 402.59149585L513.019921875, 405.697515625L508.969528076, 409.055025635L505.282431641, 412.654763672L501.944756104, 416.487467529L498.942625, 420.543875L496.262161865, 424.814723877L493.889490234, 429.290751953L491.810733643, 433.962697021L490.012015625, 438.821296875L488.479459717, 443.857289307L487.199189453, 449.061412109L486.157328369, 454.424403076L485.34, 459.937L490.381, 496.491L488.599424072, 501.276355713L487.019892578, 506.076126953L485.638762451, 510.890057373L484.452390625, 515.717890625L483.457134033, 520.559370361L482.649349609, 525.414240234L482.025394287, 530.282243896L481.581625, 535.163125L481.314398682, 540.056627197L481.220072266, 544.962494141L481.295002686, 549.880469482L481.535546875, 554.810296875L481.938061768, 559.751719971L482.498904297, 564.704482422L484.081, 574.643L488.823019531, 571.828814453L494.26734375, 568.859203125L506.192, 562.391875L512.136878906, 558.863244141L517.71315625, 555.117359375L520.279404785, 553.158116455L522.653105469, 551.138763672L524.80079248, 549.057368896L526.689, 546.912L535.346384766, 547.759298828L544.045078125, 548.316265625L552.788138672, 548.562005859L561.578625, 548.475625L570.419595703, 548.036228516L579.314109375, 547.222921875L588.265224609, 546.014810547L597.276, 544.391L604.55490625, 554.63575L608.064152344, 559.251054688L611.64425, 563.65125L615.413441406, 567.928539063L619.48996875, 572.175125L623.992074219, 576.483210938L629.038, 580.945L630.579345917, 579.0240755L631.99445874, 577.000256348L634.465935547, 572.672160156L636.492331299, 568.017163574L638.113546875, 563.09171875L639.369483154, 557.952277832L640.300041016, 552.655292969L640.945121338, 547.257216309L641.344625, 541.8145L641.538452881, 536.383596191L641.566505859, 531.020957031L641.284890625, 520.72628125L640.818986328, 511.382089844L640.488, 503.44L643.200409668, 494.737474854L645.235261719, 486.726439453L646.639803223, 479.339641357L647.46128125, 472.509828125L647.746942871, 466.169747314L647.544035156, 460.252146484L646.899805176, 454.689773193L645.8615, 449.415375L644.476366699, 444.361699463L642.791652344, 439.461494141L640.854604004, 434.647506592L638.71246875, 429.852484375L634.001925781, 420.050326172L629.038, 409.517L630.281264496, 401.098781128L631.236873779, 393.058924805L631.910832794, 385.37781897L632.309146484, 378.035851563L632.437819794, 371.013410522L632.302857666, 364.290883789L631.910265045, 357.848659302L631.266046875, 351.667125L630.376208099, 345.726668823L629.246753662, 340.007678711L627.883688507, 334.490542603L626.293017578, 329.155648438L624.480745819, 323.983384155L622.452878174, 318.954137695L620.215419586, 314.048296997L617.774375, 309.24625L615.135749359, 304.528384644L612.305547607, 299.875088867L609.289774689, 295.26675061L606.094435547, 290.683757813L599.189078369, 281.515360352L591.637515625, 272.213L583.487786865, 262.619780273L574.787931641, 252.578804688L565.585989502, 241.933176758L555.93, 230.526L554.404015625, 210.3155625L552.961375, 190.1805L552.431767578, 180.398929688L552.115546875, 170.9454375L552.076896484, 161.923101563L552.38, 153.435L550.428187012, 157.703771484L548.623089844, 162.047765625L546.957908691, 166.463501953L545.42584375, 170.9475L542.733863281, 180.106359375L540.49275, 189.4965L538.648105469, 199.090078125L537.14553125, 208.85925L535.930628906, 218.776171875L534.949, 228.813L537.282158203, 235.782851563L539.842203125, 242.767L545.340375, 256.75925L550.838359375, 270.751875L553.398169922, 277.736492188L555.731, 284.707L552.541080078, 277.837080078L549.123828125, 270.953203125L541.910375, 257.162375L534.696734375, 243.372109375L531.279248047, 236.488935547L528.089, 229.62L532.95034375, 198.81259375L535.641019531, 183.714972656L537.156266113, 176.366334473L538.82475, 169.19825L540.676444824, 162.24604834L542.741324219, 155.545058594L545.049361816, 149.130609863L547.63053125, 143.03803125L550.514806152, 137.302651855L553.732160156, 131.959800781L557.312566895, 127.044807129L559.248281799, 124.75879718L561.286, 122.593L561.291, 122.596L562.618875, 121.26584375L564.0555, 120.10875L565.605375, 119.13128125L567.273, 118.34L573.570099609, 115.690070313L576.486312744, 114.301926758L579.212296875, 112.825125L581.721548584, 111.224760742L583.987564453, 109.465929688L585.983841064, 107.513727539L587.683875, 105.33325L589.061162842, 102.889592773L590.089201172, 100.147851563L590.741486572, 97.0731220703L590.991515625, 93.6305L590.812784912, 89.7850810547L590.178791016, 85.5019609375L589.063030518, 80.7462353516L587.439, 75.483L543.315, 75.483L541.066878906, 75.648109375L538.92828125, 76.1320625L536.923980469, 76.917796875L535.07875, 77.98825L533.417363281, 79.326359375L531.96459375, 80.9150625L530.745214844, 82.737296875L529.784, 84.776L525.172166016, 96.2406679688L520.266765625, 107.35328125L515.041701172, 118.082503906L509.470875, 128.397L503.528189453, 138.265433594L500.409243896, 143.022584473L497.187546875, 147.65646875L493.859836182, 152.163169434L490.422849609, 156.538769531L486.873324951, 160.779352051L483.208, 164.881L484.307, 166.666L484.331986572, 176.161821533L483.882751953, 185.223869141L482.962192139, 193.858267334L481.573203125, 202.071140625L479.718680908, 209.868613525L477.401521484, 217.256810547L474.62462085, 224.241856201L471.390875, 230.829875L467.703179932, 237.026991455L463.564431641, 242.839330078L458.977526123, 248.273015381L453.945359375, 253.334171875L448.470827393, 258.028924072L442.556826172, 262.363396484L436.206251709, 266.343713623L429.422, 269.976L434.022673096, 265.580258057L438.414572266, 261.030298828L442.586079834, 256.317522217L446.525578125, 251.433328125L450.221449463, 246.369116455L453.662076172, 241.116287109L456.835840576, 235.66623999L459.731125, 230.010375L462.336311768, 224.140092041L464.639783203, 218.046791016L466.629921631, 211.721871826L468.295109375, 205.156734375L469.62372876, 198.342778564L470.604162109, 191.271404297L471.224791748, 183.934011475L471.474, 176.322L470.000373047, 167.8695L468.183796875, 159.760125L466.046103516, 151.9719375L463.609125, 144.483L460.894693359, 137.271375L457.924640625, 130.315125L454.720798828, 123.5923125L451.305, 117.081L456.582366943, 116.426704834L461.347669922, 115.410357422L465.611899658, 114.053952393L469.386046875, 112.379484375L472.681102295, 110.408947998L475.508056641, 108.164337891L477.877900635, 105.667648682L479.801625, 102.940875L481.290220459, 100.006011475L482.354677734, 96.8850527344L483.005987549, 93.5999934082L483.255140625, 90.172828125L483.113127686, 86.6255515137L482.590939453, 82.9801582031L481.69956665, 79.2586428223L480.45, 75.483L147.678, 75.483L141.726758186, 75.8605112534L135.861642639, 76.5700470581L130.086521324, 77.6031729813L124.405262207, 78.9514545898L118.821733253, 80.6064574509L113.339802429, 82.5597471313L107.9633377, 84.8028891983L102.696207031, 87.3274492188L97.542278389, 90.1249927597L92.5054197388, 93.1870853882L87.5894990463, 96.5052926712L82.7983842773, 100.071180176L78.1359433975, 103.876313469L73.6060443726, 107.912258118L69.2125551682, 112.170579689L64.95934375, 116.64284375L60.8502780838, 121.320615868L56.8892261353, 126.195461609L53.0800558701, 131.258946541L49.4266352539, 136.50263623L45.9328322525, 141.918096245L42.6025148315, 147.496892151L39.4395509567, 153.230589516L36.4478085937, 159.110753906L33.6311557083, 165.12895089L30.9934602661, 171.276746033L28.5385902328, 177.545704903L26.2704135742, 183.927393066L24.1927982559, 190.413376091L22.3096122437, 196.995219543L20.6247235031, 203.664488991L19.142, 210.41275L17.8653097, 217.231568138L16.7985205688, 224.112508972L15.9455005722, 231.047138069L15.3101176758, 238.027020996L14.8962398453, 245.04372332L14.7077350464, 252.088810608L14.7484712448, 259.153848427L15.0223164062, 266.230402344L15.5331384964, 273.310037926L16.284805481, 280.38432074L17.2811853256, 287.444816353L18.5261459961, 294.483090332L20.0235554581, 301.490708244L21.7772816772, 308.459235657L23.7911926193, 315.380238136L26.06915625, 322.24528125L28.615040535, 329.045930565L31.4327134399, 335.773751648L34.5260429306, 342.420310066L37.8988969727, 348.977171387L41.5551435318, 355.435901176L45.4986505737, 361.788065002L49.7332860641, 368.025228432L54.2629179688, 374.138957031L59.0914142532, 380.120816368L64.2226428833, 385.962372009L69.6604718246, 391.655189522L75.408769043, 397.190834473L81.471402504, 402.560872429L87.8522401733, 407.756868958L94.5551500168, 412.770389626L101.584, 417.593L102.849943359, 418.267044922L104.179859375, 418.685234375L105.540501953, 418.852525391L106.898625, 418.773875L108.220982422, 418.454240234L109.474328125, 417.898578125L110.625416016, 417.111845703L111.641, 416.099L112.459371094, 414.906136719L113.02553125, 413.61940625L113.341050781, 412.273472656L113.4075, 410.903L113.226449219, 409.542652344L112.79946875, 408.22709375L112.128128906, 406.990988281L111.214, 405.869L105.78244313, 400.151454643L100.599316528, 394.322742615L95.663936203, 388.390531227L90.9756181641, 382.362487793L86.533678421, 376.246279625L82.3374329834, 370.049574036L78.3861978607, 363.780038338L74.6792890625, 357.445339844L71.2160225983, 351.053145866L67.9957144775, 344.611123718L65.0176807098, 338.126940712L62.2812373047, 331.60826416L59.7857002716, 325.062761375L57.5303856201, 318.49809967L55.5146093597, 311.921946358L53.7376875, 305.34196875L52.1989360504, 298.76583416L50.8976710205, 292.2012099L49.8332084198, 285.655763283L49.0048642578, 279.137161621L48.4119545441, 272.653072227L48.0537952881, 266.211162415L47.9297024994, 259.819099495L48.0389921875, 253.484550781L48.3809803619, 247.215183586L48.9549830322, 241.018665222L49.7603162079, 234.902663002L50.7962958984, 228.874844238L52.0622381134, 222.942876244L53.5574588623, 217.114426331L55.2812741547, 211.397161812L57.233, 205.79875L59.4119524078, 200.326858208L61.8174473877, 194.989153748L64.4488009491, 189.793303932L67.3053291016, 184.746976074L70.3863478546, 179.857837486L73.6911732178, 175.133555481L77.2191212006, 170.581797371L80.9695078125, 166.210230469L84.9416490631, 162.026522087L89.1348609619, 158.038339539L93.5484595184, 154.253350136L98.1817607422, 150.679221191L103.034080643, 147.323620018L108.104735229, 144.194213928L113.393040512, 141.298670235L118.8983125, 138.64465625L124.619867203, 136.239839287L130.55702063, 134.091886658L136.709088791, 132.208465675L143.075387695, 130.597243652L149.655233353, 129.265887901L156.447941772, 128.222065735L163.452828964, 127.473444466L170.669210937, 127.027691406L178.096403702, 126.892473869L185.733723267, 127.075459167L193.580485641, 127.584314613L201.636006836, 128.42670752L209.899602859, 129.610305199L218.370589722, 131.142774963L227.048283432, 133.031784126L235.932, 135.285L259.57, 97.909L254.668, 141.028Z"></path>
        <path d="M286.036, 557.455L286.18371875, 558.09934375L286.554, 558.619L287.09153125, 558.96165625L287.741, 559.075L288.385640625, 558.92753125L288.905125, 558.5575L289.247796875, 558.01946875L289.362, 557.368L289.214109375, 556.723953125L288.844125, 556.204875L288.306328125, 555.862609375L287.655, 555.749L287.011515625, 555.89659375L286.492625, 556.26675L286.150171875, 556.80453125L286.036, 557.455ZM353.552, 379.944L354.833817444, 377.674475189L356.008754395, 374.711192139L357.073225281, 371.099494171L358.023644531, 366.884724609L358.856426575, 362.112226776L359.56798584, 356.827343994L360.154736755, 351.075419586L360.61309375, 344.901796875L361.130283691, 331.470829834L361.090871094, 316.897189453L360.466171387, 301.543622314L359.925374939, 293.687724518L359.2275, 285.772875L358.368960999, 277.844417084L357.346172363, 269.947694092L356.155548523, 262.128049347L354.793503906, 254.430826172L353.256452942, 246.901367889L351.540810059, 239.585017822L349.642989685, 232.527119293L347.55940625, 225.773015625L345.286474182, 219.36805014L342.82060791, 213.357566162L340.158221863, 207.786907013L337.295730469, 202.701416016L334.229548157, 198.146436493L330.956089355, 194.167311768L329.24051078, 192.407864742L327.471768494, 190.809385162L325.649414299, 189.377540943L323.773, 188.118L318.96346875, 202.9500625L314.1155, 217.36175L308.868, 232.591L299.415, 186.802L296.875909264, 187.502372242L294.410855164, 188.379613678L292.018992989, 189.428708248L289.699478027, 190.644639893L287.451465569, 192.022392551L285.274110901, 193.556950165L283.166569313, 195.243296673L281.127996094, 197.076416016L277.254375916, 201.162908966L273.646492676, 205.776300537L270.297588684, 210.87646225L267.20090625, 216.423265625L264.349687683, 222.376582184L261.737175293, 228.696283447L259.356611389, 235.342240936L257.201238281, 242.274326172L255.264298279, 249.452410675L253.539033691, 256.836365967L252.018686829, 264.386063568L250.6965, 272.061375L249.565715515, 279.822171783L248.619575684, 287.628325439L247.851322815, 295.439707489L247.254199219, 303.216189453L246.821447205, 310.917642853L246.546309082, 318.503939209L246.44184375, 333.170546875L246.886741699, 346.894984619L247.826941406, 359.356224609L248.465885193, 365.012824249L249.208381348, 370.233239014L250.04767218, 374.977340424L250.977, 379.205L248.355823242, 374.497388916L245.145164063, 369.315392578L237.411375, 357.609765625L228.687585938, 344.251162109L224.239426758, 337.002945068L219.88575, 329.402625L215.740549805, 321.470582275L211.917820313, 313.227197266L208.531555664, 304.692850342L207.037720825, 300.322935028L205.69575, 295.887921875L204.519892456, 291.390358429L203.524397461, 286.832792236L202.723514282, 282.217770844L202.131492188, 277.547841797L201.762580444, 272.825552643L201.63102832, 268.053450928L201.751085083, 263.234084198L202.137, 258.37L200.613721966, 262.168904964L199.316796234, 266.040657684L198.239335361, 269.982268024L197.374451904, 273.99074585L196.715258419, 278.063101025L196.254867462, 282.196343414L195.98639159, 286.387482883L195.902943359, 290.633529297L195.997635326, 294.931492519L196.263580048, 299.278382416L196.693890079, 303.671208851L197.281677979, 308.106981689L198.902137604, 317.095406036L201.069859375, 326.219734375L203.729743744, 335.456045624L206.826691162, 344.780418701L210.305602081, 354.168932526L214.111376953, 363.597666016L218.188916229, 373.04269809L222.483120361, 382.480107666L231.501125, 401.236375L249.712732422, 437.604912109L258.024742432, 454.83444458L261.789450592, 463.126803009L265.219828125, 471.172328125L268.260775482, 478.947098846L270.857193115, 486.427194092L272.953981476, 493.58869278L274.496041016, 500.407673828L275.428272186, 506.860216156L275.648483524, 509.941597462L275.695575439, 512.922398682L275.562660488, 515.799629681L275.242851227, 518.570300323L274.729260212, 521.231420475L274.015, 523.78L277.244092133, 521.485538269L281.030881592, 518.571770996L290.082630859, 510.982277344L300.780404541, 501.203434082L306.624724518, 495.552979797L312.734359375, 489.42715625L319.060578705, 482.84995282L325.5546521, 475.845358887L332.167849152, 468.437363831L338.851439453, 460.649957031L345.556692596, 452.507127869L352.234878174, 444.032865723L358.837265778, 435.251159973L365.315125, 426.186L371.619725433, 416.861375183L377.70233667, 407.301274902L383.514228302, 397.529688538L389.006669922, 387.570605469L394.130931122, 377.448015076L398.838281494, 367.185906738L403.079990631, 356.808269836L406.807328125, 346.33909375L409.971563568, 335.802367859L411.327289768, 330.516170418L412.523966553, 325.222081543L413.555502621, 319.923099907L414.415806671, 314.622224182L415.098787403, 309.322453041L415.598353516, 304.026785156L415.908413708, 298.7382192L416.022876678, 293.459753845L415.935651127, 288.194387764L415.640645752, 282.945119629L415.131769253, 277.714948112L414.402930328, 272.506871887L413.448037678, 267.323889626L412.261, 262.169L411.714576904, 268.917200684L410.729818359, 276.195824219L409.311427979, 283.908715332L407.464109375, 291.95971875L405.192566162, 300.252679199L402.501501953, 308.691441406L399.395620361, 317.179850098L395.879625, 325.62175L391.958219482, 333.92098584L387.636107422, 341.981402344L382.917992432, 349.706844238L380.411903717, 353.413901184L377.808578125, 357.00115625L375.108603607, 360.456590027L372.312568115, 363.768183105L369.421059601, 366.923916077L366.434666016, 369.911769531L363.353975311, 372.71972406L360.179575439, 375.335760254L356.912054352, 377.747858704L353.552, 379.944ZM287.856, 563.489L289.078009766, 563.333101563L290.209703125, 562.948875L291.227326172, 562.361398437L292.107125, 561.59575L292.825345703, 560.677007813L293.358234375, 559.63025L293.682037109, 558.480554688L293.773, 557.253L293.618337891, 556.031892578L293.234890625, 554.900703125L292.647841797, 553.883255859L291.882375, 553.003375L290.963673828, 552.284884766L289.916921875, 551.751609375L288.767302734, 551.427373047L287.54, 551.336L286.318853516, 551.491570312L285.187578125, 551.8755625L284.170044922, 552.462898438L283.290125, 553.2285L282.571689453, 554.147289063L282.038609375, 555.1941875L281.714755859, 556.344117187L281.624, 557.572L281.779521484, 558.793025391L282.163359375, 559.924015625L282.750423828, 560.941216797L283.515625, 561.820875L284.433873047, 562.539236328L285.480078125, 563.072546875L286.629150391, 563.397052734L287.856, 563.489ZM261.382, 545.848L260.381125, 547.24925L259.096, 548.814L255.889, 552.428L251.792, 556.378L246.89, 560.382L244.186125, 562.346L241.342, 564.25L238.400875, 566.111L235.345, 567.84L232.253625, 569.5145L229.13, 571.075L225.99775, 572.50475L222.909, 573.837L216.971125, 576.177625L211.556, 578.075L206.91425, 579.539L203.294, 580.547L200.092, 581.348L203.395, 581.212L207.184625, 580.804L212.061, 579.997L217.75825, 578.64725L220.832625, 577.75403125L224.003, 576.684L227.251375, 575.48L230.532, 574.117L233.792, 572.558L237.025, 570.876L240.173, 569.029L243.204, 567.038L246.10175, 564.9575L248.812, 562.763L251.307875, 560.498125L253.605, 558.231L257.409, 553.717L260.15, 549.562L261.181875, 547.774625L261.958, 546.201L263.368, 543.209L261.382, 545.848ZM383.011, 426.945L375.655292969, 438.618655273L369.212546875, 449.834101562L363.586574219, 460.58999707L358.6811875, 470.885L354.400199219, 480.717768555L350.647421875, 490.086960937L347.326667969, 498.991235352L344.34175, 507.42925L338.994671875, 522.901132813L336.440136719, 529.932317383L333.8366875, 536.491875L331.088136719, 542.578463867L328.098296875, 548.190742188L324.770980469, 553.327368164L322.950709961, 555.716892212L321.01, 557.987L318.16540564, 560.968354553L315.331905273, 563.640375488L312.512172974, 566.017998718L309.708882813, 568.116160156L306.924708862, 569.949795715L304.162325195, 571.533841309L301.424405884, 572.883232849L298.713625, 574.01290625L296.032656616, 574.937797424L293.384174805, 575.672842285L290.770853638, 576.232976746L288.195367188, 576.633136719L283.168594727, 577.013276855L278.32525, 576.93275L273.686725586, 576.511043457L269.274414063, 575.867644531L261.214, 574.39371875L257.608682617, 573.802166504L254.315148438, 573.466871094L251.354790039, 573.507319824L250.006236938, 573.705788025L248.749, 574.043L235.552671875, 578.78084375L227.070056641, 581.529769531L222.576326416, 582.794391113L217.997625, 583.90775L213.396435303, 584.811319824L208.835240234, 585.446574219L204.376522705, 585.754986816L200.082765625, 585.67803125L196.016451904, 585.157181152L194.088112213, 584.712006165L192.240064453, 584.133910156L190.480118988, 583.415577332L188.816086182, 582.549691895L187.255776398, 581.528938049L185.807, 580.346L191.465794922, 579.651380859L195.104977783, 579.001152588L199.192796875, 578.120546875L203.66083667, 576.98823999L208.440681641, 575.582908203L213.46391626, 573.883227783L218.662125, 571.867875L223.966892334, 569.515526123L229.309802734, 566.804857422L234.622440674, 563.714545166L239.836390625, 560.223265625L244.883237061, 556.309695068L249.694564453, 551.952509766L254.201957275, 547.130385986L256.32029837, 544.538308502L258.337, 541.822L260.135186859, 538.9624021L261.611772217, 535.945923828L262.778605743, 532.77838208L263.647537109, 529.46559375L264.230415985, 526.013375732L264.539092041, 522.427544922L264.585414948, 518.713918213L264.381234375, 514.8783125L263.938399994, 510.926544678L263.268761475, 506.864431641L262.384168488, 502.697790283L261.296470703, 498.4324375L258.559159424, 489.628865234L255.151625, 480.50025L251.168664795, 471.093126953L246.705076172, 461.45403125L241.855656494, 451.629498047L236.715203125, 441.6660625L225.940384766, 421.508625L215.139, 401.354L209.194312256, 389.471510254L203.777107422, 377.371722656L198.924298096, 365.124847168L196.721076935, 358.968192078L194.672796875, 352.80109375L192.784071991, 346.63232843L191.059516357, 340.470672363L189.503744049, 334.324901794L188.121369141, 328.203792969L186.917005707, 322.116122131L185.895267822, 316.070665527L185.060769562, 310.076199402L184.418125, 304.1415L183.971948212, 298.275343567L183.726853271, 292.486506348L183.687454254, 286.783764587L183.858365234, 281.175894531L184.244200287, 275.671672424L184.849573486, 270.279874512L185.679098907, 265.009277039L186.737390625, 259.86865625L188.029062714, 254.866788391L189.558729248, 250.012449707L191.331004303, 245.314416443L193.350501953, 240.781464844L195.621836273, 236.422371155L198.149621338, 232.245911621L200.938471222, 228.260862488L203.993, 224.476L205.552715332, 222.794745117L206.919707031, 221.563507813L208.105556152, 220.752891602L209.12184375, 220.3335L209.980150879, 220.275936523L210.692058594, 220.550804688L211.269147949, 221.128708008L211.723, 221.98025L212.065195801, 223.07603418L212.307316406, 224.386664063L212.53765625, 227.534875L212.506667969, 231.189710938L212.307, 235.116L212.19894458, 239.548545654L212.380900391, 244.596974609L212.832988037, 250.121849854L213.535328125, 255.983734375L214.46804126, 262.043191162L215.611248047, 268.160783203L216.945069092, 274.197073486L218.449625, 280.012625L220.105036377, 285.468000732L221.891423828, 290.423763672L223.788907959, 294.740476807L225.777609375, 298.278703125L226.799954254, 299.712309662L227.837648682, 300.899005615L228.888207733, 301.821361359L229.949146484, 302.461947266L231.017980011, 302.80333371L232.092223389, 302.828091064L233.169391693, 302.518789703L234.247, 301.858L234.374952637, 294.258148193L234.690402344, 286.462966797L235.234736816, 278.500954346L236.04934375, 270.400609375L237.17561084, 262.19043042L238.654925781, 253.898916016L240.52867627, 245.554564697L242.83825, 237.185875L245.625034668, 228.821345459L248.930417969, 220.489474609L252.795787598, 212.218760986L254.95140094, 208.115243927L257.26253125, 204.037703125L259.73435199, 199.989700897L262.372036621, 195.974799561L265.180758606, 191.996561432L268.165691406, 188.058548828L271.332008484, 184.164324066L274.684883301, 180.317449463L278.229489319, 176.521487335L281.971, 172.78L283.120373291, 171.466351807L284.030720703, 169.997267578L284.706883545, 168.395600342L285.153703125, 166.684203125L285.376020752, 164.885928955L285.378677734, 163.023630859L285.166515381, 161.120161865L284.744375, 159.198375L284.1170979, 157.281123291L283.289525391, 155.391259766L282.266498779, 153.551637451L281.052859375, 151.785109375L279.653448486, 150.114528564L278.073107422, 148.562748047L276.31667749, 147.15262085L274.389, 145.907L272.973478516, 144.924666016L271.967140625, 143.855578125L271.398451172, 142.743482422L271.295875, 141.632125L271.687876953, 140.565251953L272.602921875, 139.586609375L274.069474609, 138.739943359L276.116, 138.069L276.793238281, 138.167351563L277.81690625, 138.613L280.47125, 140.09075L283.21446875, 141.591375L284.349230469, 142.065617188L285.182, 142.204L285.721140625, 141.904919922L286.089375, 141.224546875L286.5715, 139.238125L286.814578125, 138.191177734L287.145125, 137.281140625L287.627734375, 136.637564453L288.327, 136.39L289.588675781, 136.622386719L290.86078125, 137.25609375L293.49675, 139.22075L294.890847656, 140.298339844L296.35584375, 141.27053125L297.906855469, 142.010644531L299.559, 142.392L300.243744141, 142.216992188L300.853078125, 141.645375L301.960125, 139.84725L303.109359375, 138.0675L303.771427734, 137.518851563L304.53, 137.376L306.000226807, 137.638205444L307.260572266, 138.014413086L308.324033936, 138.497634888L309.203609375, 139.080882813L309.912296143, 139.757168823L310.463091797, 140.519504883L310.868993896, 141.360902954L311.143, 142.274375L311.347314453, 144.289588867L311.180015625, 146.509242188L310.745083984, 148.877430664L310.1465, 151.33825L308.874296875, 156.314164063L308.408638672, 158.717450195L308.19525, 160.98975L308.338111328, 163.07515918L308.941203125, 164.917773438L309.447829346, 165.730562378L310.108505859, 166.461688477L310.936230225, 167.104163696L311.944, 167.651L313.808564453, 168.3705L315.933390625, 168.941875L318.228302734, 169.2940625L320.603125, 169.356L322.967681641, 169.056625L325.231796875, 168.324875L326.298009033, 167.774652344L327.305294922, 167.0896875L328.242382568, 166.261097656L329.098, 165.28L329.527211914, 164.318639893L329.643070312, 163.049259766L329.50422168, 161.519034912L329.1693125, 159.775140625L327.042, 151.606375L326.606485352, 149.501762939L326.326789062, 147.466533203L326.261557617, 145.547861084L326.4694375, 143.792921875L327.009075195, 142.248890869L327.939117187, 140.962943359L329.318209961, 139.982254639L331.205, 139.354L332.148466797, 139.433458984L333.270421875, 139.921796875L335.843125, 141.595375L338.509765625, 143.315265625L339.749142578, 143.861494141L340.857, 144.022L342.067935547, 143.692226563L343.147421875, 142.9843125L345.090125, 140.966L346.042380859, 139.921570313L347.041265625, 139.0309375L348.131298828, 138.427085938L349.357, 138.243L350.322925781, 138.541371094L350.95109375, 139.22953125L351.344839844, 140.183800781L351.6075, 141.2805L352.15290625, 143.40646875L352.642324219, 144.188378906L353.414, 144.618L355.055060547, 144.750308594L356.898609375, 144.56084375L360.710875, 143.71675L362.438443359, 143.312199219L363.886203125, 143.08603125L364.933580078, 143.163285156L365.269445557, 143.35477002L365.46, 143.669L365.664359619, 145.183410645L365.369314453, 146.535800781L364.648178467, 147.779095215L363.574265625, 148.96621875L360.661365234, 151.383652344L357.217125, 154.2115L355.479037354, 155.911641113L353.828056641, 157.873160156L352.337496826, 160.148981934L351.080671875, 162.79203125L350.130895752, 165.85523291L349.561482422, 169.391511719L349.44574585, 173.45379248L349.857, 178.095L352.307057983, 181.56264975L354.597573242, 185.168623779L356.734776489, 188.900678009L358.724898437, 192.746568359L360.5741698, 196.694050751L362.288821289, 200.730881104L365.3391875, 209.023609375L367.925842773, 217.526800537L370.098632812, 226.142501953L371.90740332, 234.772760986L373.402, 243.319625L374.632268555, 251.685141357L375.648054688, 259.771357422L377.2355625, 274.714078125L378.563289062, 287.364166016L379.254348633, 292.584591064L380.03, 296.938L383.98871582, 292.071718018L387.386648438, 287.297119141L390.263413086, 282.615886475L392.658625, 278.029703125L394.611899414, 273.540252197L396.162851562, 269.149216797L397.35109668, 264.858280029L398.21625, 260.669125L398.797926758, 256.583434814L399.135742188, 252.602892578L399.269311523, 248.729181396L399.23825, 244.963984375L398.840695312, 237.765865234L398.26, 231.022L398.136826172, 227.637738281L398.348046875, 224.42946875L398.881650391, 221.656339844L399.265592041, 220.513937012L399.725625, 219.5775L400.260247803, 218.879422363L400.867958984, 218.452097656L401.54725708, 218.327919434L402.296640625, 218.53928125L403.114608154, 219.11857666L403.999658203, 220.098199219L404.950289307, 221.51054248L405.965, 223.388L410.578158203, 233.075211182L414.85378125, 242.921658203L418.691404297, 252.979936279L420.414570557, 258.104947968L421.9905625, 263.302640625L423.406822021, 268.579588654L424.650791016, 273.942366455L425.709911377, 279.397548431L426.571625, 284.951708984L427.223373779, 290.611422516L427.652599609, 296.383263428L427.846744385, 302.273806122L427.79325, 308.289625L427.47955835, 314.437294464L426.893111328, 320.723388916L426.02135083, 327.154482758L424.85171875, 333.737150391L423.371656982, 340.477966217L421.568607422, 347.383504639L419.430011963, 354.460340057L416.9433125, 361.715046875L414.095950928, 369.154199493L410.875369141, 376.784372314L407.269009033, 384.61213974L403.2643125, 392.644076172L398.848721436, 400.886756012L394.009677734, 409.346753662L388.734623291, 418.030643524L383.011, 426.945Z"></path>
    </g>
</svg>