<svg height="880" version="1.1" width="880" xmlns="http://www.w3.org/2000/svg" viewBox="0 0 800 800">
    <defs></defs>
    <g transform="matrix(1,0,0,-1,0,800)">
        <path d="M392.734623291, 410.626607422L391.981565559, 410.261758869L387.115443665, 408.942522736L382.341408897, 407.484311794L378, 406L383.514228302, 397.529688538L389.006669922, 387.570605469L394.130931122, 377.448015076L398.838281494, 367.185906738L403.079990631, 356.808269836L406.807328125, 346.33909375L409.971563568, 335.802367859L411.327289768, 330.516170418L412.523966553, 325.222081543L413.555502621, 319.923099907L414.415806671, 314.622224182L415.098787403, 309.322453041L415.598353516, 304.026785156L415.908413708, 298.7382192L416.022876678, 293.459753845L415.935651127, 288.194387764L415.640645752, 282.945119629L415.131769253, 277.714948112L414.402930328, 272.506871887L413.448037678, 267.323889626L412.261, 262.169L411.714576904, 268.917200684L410.729818359, 276.195824219L409.311427979, 283.908715332L407.464109375, 291.95971875L405.192566162, 300.252679199L402.501501953, 308.691441406L399.395620361, 317.179850098L395.879625, 325.62175L391.958219482, 333.92098584L387.636107422, 341.981402344L382.917992432, 349.706844238L380.411903717, 353.413901184L377.808578125, 357.00115625L375.108603607, 360.456590027L372.312568115, 363.768183105L369.421059601, 366.923916077L366.434666016, 369.911769531L363.353975311, 372.71972406L360.179575439, 375.335760254L356.912054352, 377.747858704L353.552, 379.944L354.833817444, 377.674475189L356.008754395, 374.711192139L357.073225281, 371.099494171L358.023644531, 366.884724609L358.856426575, 362.112226776L359.56798584, 356.827343994L360.154736755, 351.075419586L360.61309375, 344.901796875L361.130283691, 331.470829834L361.090871094, 316.897189453L360.466171387, 301.543622314L359.925374939, 293.687724518L359.2275, 285.772875L358.368960999, 277.844417084L357.346172363, 269.947694092L356.155548523, 262.128049347L354.793503906, 254.430826172L353.256452942, 246.901367889L351.540810059, 239.585017822L349.642989685, 232.527119293L347.55940625, 225.773015625L345.286474182, 219.36805014L342.82060791, 213.357566162L340.158221863, 207.786907013L337.295730469, 202.701416016L334.229548157, 198.146436493L330.956089355, 194.167311768L329.24051078, 192.407864742L327.471768494, 190.809385162L325.649414299, 189.377540943L323.773, 188.118L318.96346875, 202.9500625L314.1155, 217.36175L308.868, 232.591L299.415, 186.802L296.875909264, 187.502372242L294.410855164, 188.379613678L292.018992989, 189.428708248L289.699478027, 190.644639893L287.451465569, 192.022392551L285.274110901, 193.556950165L283.166569313, 195.243296673L281.127996094, 197.076416016L277.254375916, 201.162908966L273.646492676, 205.776300537L270.297588684, 210.87646225L267.20090625, 216.423265625L264.349687683, 222.376582184L261.737175293, 227.534875L260.696505554, 218.558597382L258.848167969, 204.022271484L259, 202L259.73435199, 199.989700897L262.372036621, 195.974799561L265.180758606, 191.996561432L268.165691406, 188.058548828L271.332008484, 184.164324066L274.684883301, 180.317449463L278.229489319, 176.521487335L281.971, 172.78L283.120373291, 171.466351807L284.030720703, 169.997267578L284.706883545, 168.395600342L285.153703125, 166.684203125L285.376020752, 164.885928955L285.378677734, 163.023630859L285.166515381, 161.120161865L284.744375, 159.198375L284.1170979, 157.281123291L283.289525391, 155.391259766L282.266498779, 153.551637451L281.052859375, 151.785109375L279.653448486, 150.114528564L278.073107422, 148.562748047L276.31667749, 147.15262085L274.389, 145.907L272.973478516, 144.924666016L271.967140625, 143.855578125L271.398451172, 142.743482422L271.295875, 141.632125L271.687876953, 140.565251953L272.602921875, 139.586609375L274.069474609, 138.739943359L276.116, 138.069L276.793238281, 138.167351563L277.81690625, 138.613L280.47125, 140.09075L283.21446875, 141.591375L284.349230469, 142.065617188L285.182, 142.204L285.721140625, 141.904919922L286.089375, 141.224546875L286.5715, 139.238125L286.814578125, 138.191177734L287.145125, 137.281140625L287.627734375, 136.637564453L288.327, 136.39L289.588675781, 136.622386719L290.86078125, 137.25609375L293.49675, 139.22075L294.890847656, 140.298339844L296.35584375, 141.27053125L297.906855469, 142.010644531L299.559, 142.392L300.243744141, 142.216992188L300.853078125, 141.645375L301.960125, 139.84725L303.109359375, 138.0675L303.771427734, 137.518851563L304.53, 137.376L306.000226807, 137.638205444L307.260572266, 138.014413086L308.324033936, 138.497634888L309.203609375, 139.080882813L309.912296143, 139.757168823L310.463091797, 140.519504883L310.868993896, 141.360902954L311.143, 142.274375L311.347314453, 144.289588867L311.180015625, 146.509242188L310.745083984, 148.877430664L310.1465, 151.33825L308.874296875, 156.314164063L308.408638672, 158.717450195L308.19525, 160.98975L308.338111328, 163.07515918L308.941203125, 164.917773438L309.447829346, 165.730562378L310.108505859, 166.461688477L310.936230225, 167.104163696L311.944, 167.651L313.808564453, 168.3705L315.933390625, 168.941875L318.228302734, 169.2940625L320.603125, 169.356L322.967681641, 169.056625L325.231796875, 168.324875L326.298009033, 167.774652344L327.305294922, 167.0896875L328.242382568, 166.261097656L329.098, 165.28L329.527211914, 164.318639893L329.643070312, 163.049259766L329.50422168, 161.519034912L329.1693125, 159.775140625L327.042, 151.606375L326.606485352, 149.501762939L326.326789062, 147.466533203L326.261557617, 145.547861084L326.4694375, 143.792921875L327.009075195, 142.248890869L327.939117187, 140.962943359L329.318209961, 139.982254639L331.205, 139.354L332.148466797, 139.433458984L333.270421875, 139.921796875L335.843125, 141.595375L338.509765625, 143.315265625L339.749142578, 143.861494141L340.857, 144.022L342.067935547, 143.692226563L343.147421875, 142.9843125L345.090125, 140.966L346.042380859, 139.921570313L347.041265625, 139.0309375L348.131298828, 138.427085938L349.357, 138.243L350.322925781, 138.541371094L350.95109375, 139.22953125L351.344839844, 140.183800781L351.6075, 141.2805L352.15290625, 143.40646875L352.642324219, 144.188378906L353.414, 144.618L355.055060547, 144.750308594L356.898609375, 144.56084375L360.710875, 143.71675L362.438443359, 143.312199219L363.886203125, 143.08603125L364.933580078, 143.163285156L365.269445557, 143.35477002L365.46, 143.669L365.664359619, 145.183410645L365.369314453, 146.535800781L364.648178467, 147.779095215L363.574265625, 148.96621875L360.661365234, 151.383652344L357.217125, 154.2115L355.479037354, 155.911641113L353.828056641, 157.873160156L352.337496826, 160.148981934L351.080671875, 162.79203125L350.130895752, 165.85523291L349.561482422, 169.391511719L349.44574585, 173.45379248L349.857, 178.095L352.307057983, 181.56264975L354.597573242, 185.168623779L356.734776489, 188.900678009L358.724898437, 192.746568359L360.5741698, 196.694050751L362.288821289, 200.730881104L365.3391875, 209.023609375L367.925842773, 217.526800537L367.006119049, 218.207774353L358.998, 217.716L364.98144101, 218.959782379L368.098632812, 219.5775L370.098632812, 226.142501953L371.90740332, 234.772760986L373.402, 243.319625L374.632268555, 251.685141357L375.648054688, 259.771357422L377.2355625, 274.714078125L378.563289062, 287.364166016L379.254348633, 292.584591064L380.03, 296.938L383.98871582, 292.071718018L387.386648438, 287.297119141L390.263413086, 282.615886475L392.658625, 278.029703125L394.611899414, 273.540252197L396.162851562, 269.149216797L397.35109668, 264.858280029L398.21625, 260.669125L398.797926758, 256.583434814L399.135742188, 252.602892578L399.269311523, 248.729181396L399.23825, 244.963984375L398.840695312, 237.765865234L398.26, 231.022L398.136826172, 227.637738281L398.348046875, 224.42946875L398.881650391, 221.656339844L402.257796875, 221.190953125L404, 221L404.950289307, 221.51054248L405.965, 223.388L410.578158203, 233.075211182L414.85378125, 242.921658203L418.691404297, 252.979936279L420.414570557, 258.104947968L421.9905625, 263.302640625L423.406822021, 268.579588654L424.650791016, 273.942366455L425.709911377, 279.397548431L426.571625, 284.951708984L427.223373779, 290.611422516L427.652599609, 296.383263428L427.846744385, 302.273806122L427.79325, 308.289625L427.47955835, 314.437294464L426.893111328, 320.723388916L426.02135083, 327.154482758L424.85171875, 333.737150391L423.371656982, 340.477966217L421.568607422, 347.383504639L419.430011963, 354.460340057L416.9433125, 361.715046875L414.095950928, 369.154199493L410.875369141, 376.784372314L407.269009033, 384.61213974L403.2643125, 392.644076172L398.848721436, 400.886756012L394.009677734, 409.346753662Z"></path>
    </g>
</svg>